<mxfile host="app.diagrams.net" agent="Mozilla/5.0 (Windows NT 10.0; Win64; x64) AppleWebKit/537.36 (KHTML, like Gecko) Chrome/134.0.0.0 Safari/537.36" version="26.2.8">
  <diagram name="第 1 页" id="8rpo6neAnlrg9Bk77qF_">
    <mxGraphModel dx="1428" dy="751" grid="1" gridSize="10" guides="1" tooltips="1" connect="1" arrows="1" fold="1" page="1" pageScale="1" pageWidth="827" pageHeight="1169" math="0" shadow="0">
      <root>
        <mxCell id="0" />
        <mxCell id="1" parent="0" />
        <mxCell id="IgdpLGBIXwb7sNxbCegM-1" value="" style="rounded=0;whiteSpace=wrap;html=1;fillColor=#ffe6cc;strokeColor=#d79b00;" vertex="1" parent="1">
          <mxGeometry x="140" y="100" width="620" height="170" as="geometry" />
        </mxCell>
        <mxCell id="IgdpLGBIXwb7sNxbCegM-20" style="edgeStyle=orthogonalEdgeStyle;rounded=0;orthogonalLoop=1;jettySize=auto;html=1;entryX=0.45;entryY=-0.02;entryDx=0;entryDy=0;entryPerimeter=0;" edge="1" parent="1">
          <mxGeometry relative="1" as="geometry">
            <mxPoint x="347" y="185" as="sourcePoint" />
            <mxPoint x="316" y="309" as="targetPoint" />
            <Array as="points">
              <mxPoint x="316" y="185" />
            </Array>
          </mxGeometry>
        </mxCell>
        <mxCell id="IgdpLGBIXwb7sNxbCegM-2" value="应用程序&lt;div&gt;User Buffer&lt;/div&gt;" style="ellipse;whiteSpace=wrap;html=1;fillColor=#ffe6cc;strokeColor=#d79b00;" vertex="1" parent="1">
          <mxGeometry x="345" y="130" width="180" height="110" as="geometry" />
        </mxCell>
        <mxCell id="IgdpLGBIXwb7sNxbCegM-3" value="用户态" style="text;html=1;align=center;verticalAlign=middle;resizable=0;points=[];autosize=1;strokeColor=none;fillColor=none;" vertex="1" parent="1">
          <mxGeometry x="50" y="108" width="60" height="30" as="geometry" />
        </mxCell>
        <mxCell id="IgdpLGBIXwb7sNxbCegM-4" value="" style="rounded=0;whiteSpace=wrap;html=1;fillColor=#f8cecc;strokeColor=#b85450;" vertex="1" parent="1">
          <mxGeometry x="140" y="415" width="620" height="170" as="geometry" />
        </mxCell>
        <mxCell id="IgdpLGBIXwb7sNxbCegM-15" style="edgeStyle=orthogonalEdgeStyle;rounded=0;orthogonalLoop=1;jettySize=auto;html=1;" edge="1" parent="1" source="IgdpLGBIXwb7sNxbCegM-5" target="IgdpLGBIXwb7sNxbCegM-6">
          <mxGeometry relative="1" as="geometry" />
        </mxCell>
        <mxCell id="IgdpLGBIXwb7sNxbCegM-21" style="edgeStyle=orthogonalEdgeStyle;rounded=0;orthogonalLoop=1;jettySize=auto;html=1;entryX=0.5;entryY=1;entryDx=0;entryDy=0;" edge="1" parent="1" source="IgdpLGBIXwb7sNxbCegM-5" target="IgdpLGBIXwb7sNxbCegM-19">
          <mxGeometry relative="1" as="geometry" />
        </mxCell>
        <mxCell id="IgdpLGBIXwb7sNxbCegM-5" value="Kernal Buffer" style="ellipse;whiteSpace=wrap;html=1;fillColor=light-dark(#eb7363, #ededed);" vertex="1" parent="1">
          <mxGeometry x="190" y="445" width="170" height="110" as="geometry" />
        </mxCell>
        <mxCell id="IgdpLGBIXwb7sNxbCegM-6" value="Socket Buffer" style="ellipse;whiteSpace=wrap;html=1;fillColor=light-dark(#ff4c28, #ff9281);fontColor=#ffffff;strokeColor=#B20000;" vertex="1" parent="1">
          <mxGeometry x="540" y="445" width="170" height="110" as="geometry" />
        </mxCell>
        <mxCell id="IgdpLGBIXwb7sNxbCegM-7" value="磁盘" style="rounded=0;whiteSpace=wrap;html=1;fillColor=light-dark(#eb7363, #ededed);" vertex="1" parent="1">
          <mxGeometry x="195" y="720" width="190" height="100" as="geometry" />
        </mxCell>
        <mxCell id="IgdpLGBIXwb7sNxbCegM-8" value="网卡socket" style="rounded=0;whiteSpace=wrap;html=1;fillColor=light-dark(#ff4c28, #ff9281);fontColor=#ffffff;strokeColor=#B20000;" vertex="1" parent="1">
          <mxGeometry x="548" y="720" width="190" height="100" as="geometry" />
        </mxCell>
        <mxCell id="IgdpLGBIXwb7sNxbCegM-9" value="" style="endArrow=classic;html=1;rounded=0;entryX=0.5;entryY=1;entryDx=0;entryDy=0;exitX=0.421;exitY=0;exitDx=0;exitDy=0;exitPerimeter=0;" edge="1" parent="1" source="IgdpLGBIXwb7sNxbCegM-7" target="IgdpLGBIXwb7sNxbCegM-5">
          <mxGeometry relative="1" as="geometry">
            <mxPoint x="275" y="710" as="sourcePoint" />
            <mxPoint x="330" y="670" as="targetPoint" />
          </mxGeometry>
        </mxCell>
        <mxCell id="IgdpLGBIXwb7sNxbCegM-10" value="DMA拷贝" style="edgeLabel;resizable=0;html=1;;align=center;verticalAlign=middle;" connectable="0" vertex="1" parent="IgdpLGBIXwb7sNxbCegM-9">
          <mxGeometry relative="1" as="geometry" />
        </mxCell>
        <mxCell id="IgdpLGBIXwb7sNxbCegM-12" value="" style="endArrow=classic;html=1;rounded=0;exitX=0.5;exitY=1;exitDx=0;exitDy=0;entryX=0.405;entryY=0;entryDx=0;entryDy=0;entryPerimeter=0;" edge="1" parent="1" source="IgdpLGBIXwb7sNxbCegM-6" target="IgdpLGBIXwb7sNxbCegM-8">
          <mxGeometry relative="1" as="geometry">
            <mxPoint x="690" y="650" as="sourcePoint" />
            <mxPoint x="790" y="650" as="targetPoint" />
          </mxGeometry>
        </mxCell>
        <mxCell id="IgdpLGBIXwb7sNxbCegM-13" value="DMA拷贝" style="edgeLabel;resizable=0;html=1;;align=center;verticalAlign=middle;" connectable="0" vertex="1" parent="IgdpLGBIXwb7sNxbCegM-12">
          <mxGeometry relative="1" as="geometry" />
        </mxCell>
        <mxCell id="IgdpLGBIXwb7sNxbCegM-16" value="CPU拷贝" style="rounded=0;whiteSpace=wrap;html=1;opacity=70;" vertex="1" parent="1">
          <mxGeometry x="400" y="492.5" width="70" height="15" as="geometry" />
        </mxCell>
        <mxCell id="IgdpLGBIXwb7sNxbCegM-19" value="物理内存地址" style="rounded=0;whiteSpace=wrap;html=1;fillColor=#dae8fc;strokeColor=#6c8ebf;" vertex="1" parent="1">
          <mxGeometry x="234" y="310" width="180" height="50" as="geometry" />
        </mxCell>
        <mxCell id="IgdpLGBIXwb7sNxbCegM-22" value="用户虚拟地址" style="rounded=0;whiteSpace=wrap;html=1;opacity=70;" vertex="1" parent="1">
          <mxGeometry x="250" y="240" width="130" height="40" as="geometry" />
        </mxCell>
        <mxCell id="IgdpLGBIXwb7sNxbCegM-24" value="内存虚拟地址" style="rounded=0;whiteSpace=wrap;html=1;opacity=60;" vertex="1" parent="1">
          <mxGeometry x="215" y="390" width="130" height="40" as="geometry" />
        </mxCell>
        <mxCell id="IgdpLGBIXwb7sNxbCegM-25" value="内核态" style="text;html=1;align=center;verticalAlign=middle;resizable=0;points=[];autosize=1;strokeColor=none;fillColor=none;" vertex="1" parent="1">
          <mxGeometry x="50" y="418" width="60" height="30" as="geometry" />
        </mxCell>
        <mxCell id="IgdpLGBIXwb7sNxbCegM-26" value="" style="endArrow=classic;html=1;rounded=0;strokeColor=light-dark(#d46b5b, #ededed);strokeWidth=2;" edge="1" parent="1">
          <mxGeometry width="50" height="50" relative="1" as="geometry">
            <mxPoint x="160" y="273" as="sourcePoint" />
            <mxPoint x="160" y="413" as="targetPoint" />
          </mxGeometry>
        </mxCell>
        <mxCell id="IgdpLGBIXwb7sNxbCegM-27" value="1-mmap（）调用&lt;div&gt;CPU状态切换&lt;/div&gt;" style="text;html=1;align=center;verticalAlign=middle;resizable=0;points=[];autosize=1;strokeColor=none;fillColor=none;" vertex="1" parent="1">
          <mxGeometry x="90" y="315" width="120" height="40" as="geometry" />
        </mxCell>
        <mxCell id="IgdpLGBIXwb7sNxbCegM-28" value="" style="endArrow=classic;html=1;rounded=0;strokeColor=light-dark(#d46b5b, #ededed);strokeWidth=2;" edge="1" parent="1" target="IgdpLGBIXwb7sNxbCegM-1">
          <mxGeometry width="50" height="50" relative="1" as="geometry">
            <mxPoint x="450" y="410" as="sourcePoint" />
            <mxPoint x="450" y="270" as="targetPoint" />
          </mxGeometry>
        </mxCell>
        <mxCell id="IgdpLGBIXwb7sNxbCegM-29" value="2-CPU状态切换" style="text;html=1;align=center;verticalAlign=middle;resizable=0;points=[];autosize=1;strokeColor=none;fillColor=none;" vertex="1" parent="1">
          <mxGeometry x="385" y="370" width="110" height="30" as="geometry" />
        </mxCell>
        <mxCell id="IgdpLGBIXwb7sNxbCegM-30" value="" style="endArrow=classic;html=1;rounded=0;strokeColor=light-dark(#d46b5b, #ededed);strokeWidth=2;" edge="1" parent="1">
          <mxGeometry width="50" height="50" relative="1" as="geometry">
            <mxPoint x="580" y="270" as="sourcePoint" />
            <mxPoint x="580" y="410" as="targetPoint" />
          </mxGeometry>
        </mxCell>
        <mxCell id="IgdpLGBIXwb7sNxbCegM-31" value="3-write（）调用&lt;div&gt;CPU状态切换&lt;/div&gt;" style="text;html=1;align=center;verticalAlign=middle;resizable=0;points=[];autosize=1;strokeColor=none;fillColor=none;" vertex="1" parent="1">
          <mxGeometry x="505" y="323" width="110" height="40" as="geometry" />
        </mxCell>
        <mxCell id="IgdpLGBIXwb7sNxbCegM-32" value="" style="endArrow=classic;html=1;rounded=0;strokeColor=light-dark(#d46b5b, #ededed);strokeWidth=2;" edge="1" parent="1">
          <mxGeometry width="50" height="50" relative="1" as="geometry">
            <mxPoint x="710" y="410" as="sourcePoint" />
            <mxPoint x="710" y="270" as="targetPoint" />
          </mxGeometry>
        </mxCell>
        <mxCell id="IgdpLGBIXwb7sNxbCegM-33" value="4-CPU状态切换" style="text;html=1;align=center;verticalAlign=middle;resizable=0;points=[];autosize=1;strokeColor=none;fillColor=none;" vertex="1" parent="1">
          <mxGeometry x="635" y="338" width="110" height="30" as="geometry" />
        </mxCell>
      </root>
    </mxGraphModel>
  </diagram>
</mxfile>
